Coordinates
version=1
nRows=31
nColumns=38
inDegrees=no

Units are S.I. units (second, meters, Newtons, ...)
If the header above contains a line with 'inDegrees', this indicates whether rotational values are in degrees (yes) or radians (no).

endheader
time	pelvis_tilt	pelvis_list	pelvis_rotation	pelvis_tx	pelvis_ty	pelvis_tz	hip_flexion_r	hip_adduction_r	hip_rotation_r	knee_angle_r	ankle_angle_r	subtalar_angle_r	mtp_angle_r	hip_flexion_l	hip_adduction_l	hip_rotation_l	knee_angle_l	ankle_angle_l	subtalar_angle_l	mtp_angle_l	lumbar_extension	lumbar_bending	lumbar_rotation	arm_flex_r	arm_add_r	arm_rot_r	elbow_flex_r	pro_sup_r	wrist_flex_r	wrist_dev_r	arm_flex_l	arm_add_l	arm_rot_l	elbow_flex_l	pro_sup_l	wrist_flex_l	wrist_dev_l
0.44	-0.486243	1.39636	-1.11092	0.716776	0.253445	1.02566	-0.426095	0.130539	0.0512236	0	-0.162169	0	0	0.294	-0.258555	-0.579955	0.733723	-0.00100131	0	0	-0.404663	0.155088	0.242707	-0.331893	-0.407197	0.228008	0.71728	0.935647	0	0	0.0988067	-0.443481	1.26254	0.530772	1.04275	0	0
0.45	-0.502402	1.39746	-1.10401	0.715948	0.242558	1.02321	-0.435835	0.128123	0.0512445	0	-0.155649	0	0	0.297674	-0.262376	-0.596503	0.721091	0.0109194	0	0	-0.403174	0.150338	0.246203	-0.329534	-0.406098	0.232052	0.716787	0.940252	0	0	0.0895554	-0.43913	1.25331	0.519197	1.0401	0	0
0.46	-0.513419	1.39773	-1.10333	0.714945	0.231643	1.02091	-0.445747	0.125025	0.0530589	0	-0.149222	0	0	0.299028	-0.265473	-0.608893	0.711003	0.0207001	0	0	-0.403032	0.144393	0.250359	-0.326418	-0.404318	0.236904	0.71537	0.944974	0	0	0.0811013	-0.435035	1.2436	0.507311	1.03793	0	0
0.47	-0.519472	1.3968	-1.10819	0.713816	0.220675	1.01882	-0.45541	0.121557	0.0557956	0	-0.142801	0	0	0.298345	-0.267799	-0.616518	0.703414	0.0269155	0	0	-0.404559	0.137594	0.254913	-0.322851	-0.401929	0.242215	0.713498	0.949712	0	0	0.0735343	-0.431347	1.2333	0.495599	1.03559	0	0
0.48	-0.52082	1.39535	-1.11784	0.712649	0.209643	1.01683	-0.464687	0.117667	0.0576724	0	-0.137778	0	0	0.29698	-0.269186	-0.619763	0.699769	0.0295556	0	0	-0.406895	0.129894	0.259636	-0.31952	-0.39891	0.247287	0.711739	0.953719	0	0	0.0672118	-0.428362	1.224	0.484455	1.03319	0	0
0.49	-0.518002	1.39355	-1.13137	0.711543	0.198446	1.01498	-0.473441	0.113228	0.0594296	0	-0.134526	0	0	0.295102	-0.269098	-0.618057	0.699834	0.0296002	0	0	-0.409517	0.121593	0.264392	-0.316836	-0.395355	0.251981	0.71012	0.956863	0	0	0.0620018	-0.425701	1.21601	0.473351	1.03105	0	0
0.5	-0.511979	1.39101	-1.14758	0.710582	0.186985	1.01328	-0.481964	0.108412	0.0618465	0	-0.132075	0	0	0.292356	-0.268395	-0.612922	0.704472	0.0267278	0	0	-0.412535	0.113349	0.268925	-0.315026	-0.391677	0.256603	0.708698	0.959937	0	0	0.0574016	-0.423079	1.20848	0.462053	1.02958	0	0
0.51	-0.50532	1.38775	-1.16363	0.709803	0.175259	1.01167	-0.490432	0.103695	0.0645414	0	-0.130626	0	0	0.288931	-0.267402	-0.604256	0.713475	0.0196989	0	0	-0.415798	0.105794	0.273028	-0.314208	-0.387897	0.260773	0.707449	0.962717	0	0	0.0533301	-0.420631	1.20127	0.451145	1.02851	0	0
0.52	-0.497264	1.38331	-1.18085	0.709177	0.163313	1.01022	-0.499085	0.0987064	0.0663592	0.00328704	-0.13004	0	0	0.283689	-0.265852	-0.592016	0.725172	0.00692566	0	0	-0.420195	0.0990117	0.277011	-0.314251	-0.384612	0.264799	0.706758	0.966339	0	0	0.0493986	-0.417312	1.19213	0.439289	1.02842	0	0
0.53	-0.491055	1.37849	-1.19604	0.708755	0.151205	1.00889	-0.501861	0.0937487	0.0614576	0.0339926	-0.126404	0	0	0.277349	-0.263276	-0.575113	0.73691	-0.00963203	0	0	-0.42491	0.0930335	0.280662	-0.314983	-0.381988	0.268203	0.706809	0.970788	0	0	0.0457502	-0.414007	1.1824	0.428206	1.03038	0	0
0.54	-0.480905	1.37448	-1.21516	0.708603	0.138896	1.00782	-0.499153	0.0869173	0.0513723	0.0771197	-0.113916	0	0	0.270284	-0.259518	-0.561475	0.747657	-0.0294839	0	0	-0.428618	0.0861235	0.283579	-0.314808	-0.379125	0.27246	0.704346	0.976414	0	0	0.0422824	-0.409936	1.17196	0.415987	1.03331	0	0
0.55	-0.457806	1.37114	-1.24707	0.708642	0.126429	1.00728	-0.494103	0.0762864	0.0403778	0.126673	-0.0947228	0	0	0.262569	-0.256133	-0.562106	0.758253	-0.054707	0	0	-0.431774	0.0761465	0.284485	-0.311744	-0.37501	0.279085	0.697001	0.982272	0	0	0.0389576	-0.405456	1.16095	0.401857	1.03665	0	0
0.56	-0.424738	1.36884	-1.28738	0.708794	0.113829	1.00728	-0.486582	0.063455	0.031112	0.179818	-0.0762363	0	0	0.257139	-0.254287	-0.571974	0.769806	-0.0871793	0	0	-0.433764	0.0635389	0.282544	-0.305802	-0.369238	0.288439	0.685069	0.986679	0	0	0.0361075	-0.40117	1.14906	0.386357	1.03825	0	0
0.57	-0.394562	1.36866	-1.3219	0.709142	0.101176	1.00742	-0.474836	0.0518567	0.0260094	0.235005	-0.0656012	0	0	0.256683	-0.251402	-0.56838	0.780042	-0.118309	0	0	-0.433032	0.0515346	0.278455	-0.299402	-0.362437	0.29799	0.671544	0.988324	0	0	0.0347295	-0.397164	1.13958	0.370239	1.03741	0	0
0.58	-0.371098	1.37179	-1.34685	0.709823	0.0885473	1.00748	-0.454613	0.0419853	0.022423	0.298746	-0.0579308	0	0	0.260949	-0.242992	-0.544562	0.786358	-0.136994	0	0	-0.42841	0.0414777	0.2728	-0.293396	-0.355576	0.307396	0.657409	0.98782	0	0	0.0347476	-0.392798	1.13217	0.353443	1.03613	0	0
0.59	-0.346172	1.37697	-1.37109	0.710949	0.0759509	1.00759	-0.427155	0.0320737	0.0192276	0.370997	-0.0540354	0	0	0.267546	-0.229415	-0.513186	0.792744	-0.143908	0	0	-0.42186	0.0324493	0.265937	-0.288087	-0.349306	0.316246	0.643482	0.985535	0	0	0.0362433	-0.388331	1.12674	0.337215	1.03424	0	0
0.6	-0.31473	1.38319	-1.40061	0.712379	0.0633568	1.00785	-0.395032	0.0212872	0.0180421	0.447025	-0.0569006	0	0	0.274708	-0.213987	-0.486647	0.801461	-0.148818	0	0	-0.414525	0.0235356	0.258359	-0.283499	-0.34372	0.324646	0.630167	0.982449	0	0	0.0388654	-0.384616	1.12332	0.322851	1.03212	0	0
0.61	-0.279899	1.39026	-1.43194	0.713917	0.0506844	1.00813	-0.360622	0.0113449	0.0203678	0.520964	-0.0708994	0	0	0.281703	-0.198695	-0.467129	0.810994	-0.154105	0	0	-0.406048	0.0156075	0.249828	-0.280268	-0.338675	0.331938	0.618331	0.979703	0	0	0.0420091	-0.382955	1.12123	0.312597	1.02944	0	0
0.62	-0.246178	1.39782	-1.4613	0.715542	0.0381788	1.00832	-0.324175	0.00348807	0.0271066	0.592109	-0.0995986	0	0	0.286806	-0.184063	-0.452748	0.818753	-0.156534	0	0	-0.397236	0.0096754	0.241231	-0.279035	-0.33529	0.336878	0.610236	0.978251	0	0	0.0459676	-0.383476	1.12064	0.307656	1.02577	0	0
0.63	-0.213473	1.40471	-1.49076	0.717167	0.0258813	1.00852	-0.286704	-0.0026189	0.0388954	0.660096	-0.141062	0	0	0.286749	-0.170749	-0.446153	0.823632	-0.153318	0	0	-0.389645	0.0052881	0.234751	-0.280601	-0.333999	0.337133	0.607551	0.97931	0	0	0.0513645	-0.385645	1.12222	0.30797	1.02183	0	0
0.64	-0.178027	1.41199	-1.52336	0.718786	0.0138384	1.00867	-0.246421	-0.00750617	0.0529442	0.727989	-0.191262	0	0	0.28341	-0.157897	-0.445823	0.825785	-0.145099	0	0	-0.381843	0.00150486	0.228977	-0.283698	-0.333608	0.333201	0.607996	0.984761	0	0	0.0579681	-0.38971	1.12656	0.312843	1.01743	0	0
0.65	-0.139392	1.41807	-1.55938	0.720357	0.00214299	1.00889	-0.206969	-0.0109484	0.0674191	0.792277	-0.241669	0	0	0.276506	-0.146177	-0.451338	0.825914	-0.135205	0	0	-0.375848	-0.00172495	0.223674	-0.288797	-0.334367	0.324143	0.613364	0.994009	0	0	0.0660312	-0.396145	1.13269	0.323305	1.01263	0	0
0.66	-0.0985247	1.42265	-1.59781	0.721863	-0.0091681	1.00923	-0.168199	-0.0134538	0.0795548	0.853309	-0.298311	0	0	0.2668	-0.136225	-0.462513	0.824895	-0.125971	0	0	-0.371835	-0.00456743	0.218704	-0.295811	-0.335399	0.308602	0.622812	1.00891	0	0	0.0757392	-0.405404	1.14129	0.339864	1.00645	0	0
0.67	-0.0568014	1.42604	-1.63698	0.723381	-0.0201167	1.00966	-0.129112	-0.0157824	0.088011	0.911983	-0.356622	0	0	0.256162	-0.127735	-0.475869	0.824602	-0.118191	0	0	-0.369523	-0.00700841	0.213993	-0.304414	-0.337077	0.288682	0.636458	1.02648	0	0	0.0873049	-0.416852	1.15173	0.36127	1.00024	0	0
0.68	-0.0163142	1.42924	-1.67367	0.724986	-0.0308742	1.01016	-0.0878623	-0.0181374	0.0919319	0.970027	-0.410062	0	0	0.2461	-0.119528	-0.48525	0.824501	-0.110971	0	0	-0.36732	-0.00860947	0.208543	-0.313907	-0.33866	0.266221	0.652107	1.04593	0	0	0.100365	-0.429447	1.16356	0.384937	0.994293	0	0
0.69	0.0205835	1.43205	-1.70561	0.72671	-0.041442	1.01079	-0.0465818	-0.0204737	0.092682	1.02437	-0.442531	0	0	0.236212	-0.111228	-0.488673	0.82331	-0.104662	0	0	-0.365516	-0.00913258	0.202536	-0.323377	-0.340701	0.244485	0.66867	1.06266	0	0	0.115029	-0.441802	1.17544	0.408674	0.990614	0	0
0.7	0.050133	1.43408	-1.72934	0.72855	-0.0518219	1.01163	-0.00694805	-0.0224772	0.0903898	1.07362	-0.448349	0	0	0.225938	-0.103581	-0.487274	0.820515	-0.10015	0	0	-0.364612	-0.00833469	0.196363	-0.332116	-0.343221	0.224599	0.68476	1.07692	0	0	0.131315	-0.453675	1.18768	0.432022	0.989956	0	0
0.71	0.0700554	1.43546	-1.74249	0.730469	-0.0620422	1.01266	0.0307454	-0.023997	0.0849064	1.11777	-0.432331	0	0	0.215053	-0.0974168	-0.48297	0.8156	-0.0981372	0	0	-0.364574	-0.00606059	0.19023	-0.339788	-0.345444	0.205692	0.699017	1.09148	0	0	0.149387	-0.465046	1.20068	0.454755	0.991257	0	0
0.72	0.0789308	1.43618	-1.74372	0.732395	-0.0721575	1.01384	0.0667516	-0.0248934	0.0769853	1.15745	-0.405242	0	0	0.204079	-0.0924254	-0.474014	0.809549	-0.0981129	0	0	-0.365297	-0.0023958	0.184447	-0.345891	-0.347403	0.18927	0.710472	1.10487	0	0	0.169269	-0.475729	1.21435	0.476455	0.995647	0	0
0.73	0.0789508	1.43751	-1.73551	0.734318	-0.0822031	1.01505	0.102028	-0.0254096	0.0677035	1.19112	-0.380986	0	0	0.193979	-0.0883741	-0.461837	0.801809	-0.0998023	0	0	-0.36512	0.00245206	0.179188	-0.349883	-0.349705	0.177908	0.718046	1.11443	0	0	0.190203	-0.484959	1.22756	0.49568	1.00334	0	0
0.74	0.0725017	1.43869	-1.72135	0.736195	-0.0922834	1.01637	0.136803	-0.0261334	0.0581666	1.22006	-0.358427	0	0	0.182811	-0.08497	-0.449683	0.791959	-0.101977	0	0	-0.364669	0.007727	0.175442	-0.352585	-0.351986	0.169384	0.722256	1.1226	0	0	0.211814	-0.493023	1.23971	0.513305	1.01365	0	0
